<svg xmlns="http://www.w3.org/2000/svg" width="23.635" height="22.677" viewBox="0 0 23.635 22.677"><g transform="translate(-13 -14.5)"><path d="M33.76,23.443a8.943,8.943,0,1,0-17.886,0A2.875,2.875,0,0,0,13,26.317v3.513a2.875,2.875,0,0,0,2.875,2.875H18.11a.958.958,0,0,0,.958-.958V24.4a.958.958,0,0,0-.958-.958h-.319a7.027,7.027,0,0,1,14.053,0h-.319a.958.958,0,0,0-.958.958v7.346a.958.958,0,0,0,.958.958h.738a2.236,2.236,0,0,1-2.015,1.278H27.472a2.236,2.236,0,1,0,0,1.916h2.775a4.152,4.152,0,0,0,4.05-3.245,2.875,2.875,0,0,0,2.338-2.823V26.317A2.875,2.875,0,0,0,33.76,23.443ZM17.152,30.789H15.875a.958.958,0,0,1-.958-.958V26.317a.958.958,0,0,1,.958-.958h1.278Zm8.3,4.471a.319.319,0,1,1,.319-.319A.319.319,0,0,1,25.456,35.26Zm9.262-5.43a.958.958,0,0,1-.958.958H32.483v-5.43H33.76a.958.958,0,0,1,.958.958Z" transform="translate(0)"/></g></svg>