<svg xmlns="http://www.w3.org/2000/svg" width="26.892" height="26.892" viewBox="0 0 26.892 26.892"><defs><style>.a{opacity:0.5;}.b{stroke:#000;}</style></defs><g class="a" transform="translate(0.5 0.5)"><g transform="translate(5.394 5.394)"><path class="b" d="M14.17,25.5H10.934a1.752,1.752,0,0,1-1.618-1.942V21.29a3.746,3.746,0,0,0-1.4-2.8A7.457,7.457,0,0,1,5,12.444,7.678,7.678,0,0,1,12.444,5a7.582,7.582,0,0,1,5.394,2.158A7.68,7.68,0,0,1,20.1,12.552a7.255,7.255,0,0,1-2.8,5.826,3.939,3.939,0,0,0-1.51,3.021V23.88A1.659,1.659,0,0,1,14.17,25.5ZM12.552,6.079a6.617,6.617,0,0,0-6.473,6.365A6.341,6.341,0,0,0,8.56,17.622a4.7,4.7,0,0,1,1.834,3.668v2.266c0,.216,0,.863.539.863H14.17a.51.51,0,0,0,.539-.539V21.4a5.243,5.243,0,0,1,1.942-3.884,6.291,6.291,0,0,0,2.373-4.963,6.449,6.449,0,0,0-1.942-4.639,6.359,6.359,0,0,0-4.531-1.834Z" transform="translate(-5 -5)"/></g><g transform="translate(9.709 21.577)"><path class="b" d="M14.934,21.079H9.539a.539.539,0,1,1,0-1.079h5.394a.539.539,0,1,1,0,1.079Z" transform="translate(-9 -20)"/></g><g transform="translate(12.407)"><path class="b" d="M12.039,3.236A.51.51,0,0,1,11.5,2.7V.539a.539.539,0,0,1,1.079,0V2.7A.51.51,0,0,1,12.039,3.236Z" transform="translate(-11.5)"/></g><g transform="translate(19.581 3.722)"><path class="b" d="M18.743,5.985a.649.649,0,0,1-.432-.108.521.521,0,0,1,0-.755l1.51-1.51a.534.534,0,1,1,.755.755l-1.51,1.51a1.087,1.087,0,0,1-.324.108Z" transform="translate(-18.15 -3.45)"/></g><g transform="translate(22.655 12.407)"><path class="b" d="M23.7,12.579H21.539a.539.539,0,0,1,0-1.079H23.7a.539.539,0,1,1,0,1.079Z" transform="translate(-21 -11.5)"/></g><g transform="translate(19.581 19.689)"><path class="b" d="M20.254,20.785a.649.649,0,0,1-.432-.108l-1.51-1.51a.534.534,0,1,1,.755-.755l1.51,1.51a.521.521,0,0,1,0,.755c0,.108-.108.108-.324.108Z" transform="translate(-18.15 -18.25)"/></g><g transform="translate(3.614 19.689)"><path class="b" d="M3.943,20.785a.649.649,0,0,1-.432-.108.521.521,0,0,1,0-.755l1.51-1.51a.534.534,0,0,1,.755.755l-1.51,1.51A.4.4,0,0,1,3.943,20.785Z" transform="translate(-3.35 -18.25)"/></g><g transform="translate(0 12.407)"><path class="b" d="M2.7,12.579H.539a.539.539,0,0,1,0-1.079H2.7a.539.539,0,1,1,0,1.079Z" transform="translate(0 -11.5)"/></g><g transform="translate(3.614 3.614)"><path class="b" d="M5.454,5.993a.649.649,0,0,1-.432-.108L3.512,4.267a.534.534,0,0,1,.755-.755l1.51,1.51a.521.521,0,0,1,0,.755c-.108.108-.216.216-.324.216Z" transform="translate(-3.35 -3.35)"/></g><g transform="translate(12.407 8.091)"><path class="b" d="M16.355,12.894a.51.51,0,0,1-.539-.539,3.822,3.822,0,0,0-3.776-3.776.539.539,0,1,1,0-1.079,4.835,4.835,0,0,1,4.855,4.855A.51.51,0,0,1,16.355,12.894Z" transform="translate(-11.5 -7.5)"/></g></g></svg>