<svg xmlns="http://www.w3.org/2000/svg" width="22.047" height="22.047" viewBox="0 0 22.047 22.047"><defs><style>.a{opacity:0.5;}</style></defs><g class="a"><path d="M11.023,22.047A11.023,11.023,0,0,1,11.023,0a.919.919,0,0,1,0,1.837,9.186,9.186,0,1,0,9.186,9.186.919.919,0,1,1,1.837,0A11.036,11.036,0,0,1,11.023,22.047Zm0-20.209a.966.966,0,0,1-.652-.266A.966.966,0,0,1,10.1.919a.966.966,0,0,1,.266-.652.962.962,0,0,1,1.3,0,.966.966,0,0,1,.266.652.966.966,0,0,1-.266.652A.966.966,0,0,1,11.023,1.837Zm8.488,5.668a.92.92,0,1,1,1.2.5.992.992,0,0,1-.349.073A.914.914,0,0,1,19.511,7.505ZM17.517,4.529a.926.926,0,0,1,0-1.3.915.915,0,0,1,1.3,0A.919.919,0,0,1,18.17,4.8.945.945,0,0,1,17.517,4.529ZM14.542,2.535a.92.92,0,1,1,.707-1.7A.918.918,0,0,1,14.891,2.6.905.905,0,0,1,14.542,2.535Zm6.586,9.407a.91.91,0,1,1,.652-.266.964.964,0,0,1-.652.266ZM14.7,13.779a.921.921,0,0,1-.41-.1l-3.674-1.837a.92.92,0,0,1-.508-.822V4.593a.919.919,0,0,1,1.837,0v5.863l3.166,1.584a.918.918,0,0,1-.412,1.74Z"/></g></svg>