<svg xmlns="http://www.w3.org/2000/svg" width="28.822" height="28.822" viewBox="0 0 28.822 28.822"><defs><style>.a{opacity:0.5;}</style></defs><g class="a" transform="translate(-8.013 -8.033)"><path d="M23.737,36.795A14.41,14.41,0,1,1,36.775,23.757,14.41,14.41,0,0,1,23.737,36.795Zm.1-27.335A13.038,13.038,0,1,0,35.392,21.015,13.038,13.038,0,0,0,23.836,9.46Z" transform="translate(0 0)"/><path d="M42.894,35.066l-3.157-1.829a.47.47,0,0,0-.707.408v1.146H30.855a2.745,2.745,0,0,0-2.745,2.745v2.649a.686.686,0,0,0,1.372,0V37.537a1.372,1.372,0,0,1,1.372-1.372h8.159v1.143a.47.47,0,0,0,.724.408l3.174-1.829a.473.473,0,0,0-.017-.82Z" transform="translate(-13.201 -16.514)"/><path d="M28.347,50.2l3.174,1.829a.47.47,0,0,0,.707-.408V50.47h8.159a2.745,2.745,0,0,0,2.745-2.745V45.076a.686.686,0,1,0-1.372,0v2.649A1.372,1.372,0,0,1,40.386,49.1H32.227V47.955a.47.47,0,0,0-.707-.408l-3.174,1.829a.473.473,0,0,0,0,.82Z" transform="translate(-13.201 -23.882)"/></g></svg>