<svg xmlns="http://www.w3.org/2000/svg" width="30.13" height="21.726" viewBox="0 0 30.13 21.726"><defs><style>.a{opacity:0.5;}</style></defs><g class="a" transform="translate(-4 -16.83)"><path d="M30.855,16.83H7.275A3.275,3.275,0,0,0,4,20.1V35.281a3.275,3.275,0,0,0,3.275,3.275h23.58a3.275,3.275,0,0,0,3.275-3.275V20.1a3.275,3.275,0,0,0-3.275-3.275Zm1.965,18.448a1.965,1.965,0,0,1-1.965,1.965H7.275A1.965,1.965,0,0,1,5.31,35.278V20.1A1.965,1.965,0,0,1,7.275,18.14h23.58A1.965,1.965,0,0,1,32.819,20.1Z"/><path d="M26.574,36.962,23.411,36.5l-1.421-2.866a.655.655,0,0,0-1.176,0L19.4,36.5l-3.164.458a.655.655,0,0,0-.37,1.133l2.292,2.23-.54,3.15a.655.655,0,0,0,.95.691l2.826-1.487,2.83,1.487a.655.655,0,0,0,.95-.691l-.54-3.15,2.292-2.23a.655.655,0,0,0-.35-1.133Z" transform="translate(-7.837 -11.057)"/><rect width="8.623" height="1.31" transform="translate(21.675 24.909)"/><rect width="8.623" height="1.31" transform="translate(21.675 29.167)"/></g></svg>