<svg xmlns="http://www.w3.org/2000/svg" width="27.417" height="25.704" viewBox="0 0 27.417 25.704"><defs><style>.a{opacity:0.5;}</style></defs><g class="a" transform="translate(0 -1)"><g transform="translate(0 1)"><path d="M21.279,2H5V3.714H21.279a.858.858,0,0,1,.857.857V9.711a.858.858,0,0,1-.857.857h-2.57V7.141l-5.141,4.284,5.141,4.284V12.281h2.57a2.573,2.573,0,0,0,2.57-2.57V4.57A2.573,2.573,0,0,0,21.279,2Z" transform="translate(3.568 -0.286)"/><path d="M13.709,17.281H2.57a.858.858,0,0,1-.857-.857V9.57a.857.857,0,0,1,.857-.857H6.854V7H2.57A2.573,2.573,0,0,0,0,9.57v6.854a2.573,2.573,0,0,0,2.57,2.57H13.709v3.427l5.141-4.284-5.141-4.284Z" transform="translate(0 3.281)"/><path d="M.857,6.141H6a.859.859,0,0,0,.857-.857V1.857A.859.859,0,0,0,6,1H.857A.859.859,0,0,0,0,1.857V5.284A.859.859,0,0,0,.857,6.141Z" transform="translate(0 -1)"/><path d="M5.857,11.141H11a.859.859,0,0,0,.857-.857V6.857A.859.859,0,0,0,11,6H5.857A.859.859,0,0,0,5,6.857v3.427A.859.859,0,0,0,5.857,11.141Z" transform="translate(3.568 2.568)"/><path d="M18,12H12.857a.859.859,0,0,0-.857.857v3.427a.859.859,0,0,0,.857.857H18a.859.859,0,0,0,.857-.857V12.857A.859.859,0,0,0,18,12Z" transform="translate(8.563 6.849)"/></g></g></svg>