<svg xmlns="http://www.w3.org/2000/svg" width="32.162" height="35.977" viewBox="0 0 32.162 35.977"><defs><style>.a{opacity:0.5;}.b{stroke:#000;stroke-width:0.5px;}</style></defs><g class="a" transform="translate(-5.252 0.25)"><g transform="translate(5.523)"><path class="b" d="M36.72.842a1.139,1.139,0,0,0-1.584.064L27.971,8.677a2.048,2.048,0,0,0-1.2.4l-3.533,2.633-1.1-1.369a4.619,4.619,0,0,0-4.387-2.064,4.446,4.446,0,1,0-4.521,0,4.552,4.552,0,0,0-4.387,2.064L5.869,14.046a2.1,2.1,0,0,0-.2,1.909L8.61,21.676a2.011,2.011,0,0,0,2.474,1.133V33.141a2.353,2.353,0,0,0,4.407,1.131A2.353,2.353,0,0,0,19.9,33.141V14.077L21.26,15.74a2.04,2.04,0,0,0,2.872.438L29.195,12.4a2.076,2.076,0,0,0,.68-2.485l6.909-7.494A1.123,1.123,0,0,0,36.72.842Zm-24.791,3.6a3.561,3.561,0,1,1,3.561,3.561A3.565,3.565,0,0,1,11.929,4.446Zm4.194,11.449.123.857a.308.308,0,1,0,.086.6l.137.961a.307.307,0,0,0-.54.2.313.313,0,0,0,.319.307l-.451.525a.305.305,0,0,0-.288-.414.308.308,0,1,0,0,.617.3.3,0,0,0,.148-.039l-.167.194-.761-.887a.308.308,0,1,0-.228-.423l.151-1.058a.3.3,0,0,0,.133.031.308.308,0,1,0-.05-.612l.121-.849a.307.307,0,0,0,.081-.566l.267-1.872a.307.307,0,0,0,.584.085l.259,1.811a.307.307,0,0,0,.076.528ZM15.6,12.266l.137.96a.306.306,0,0,0-.512.072l.149-1.045A.28.28,0,0,0,15.6,12.266Zm-.142-.6.028-.2.028.193S15.478,11.668,15.462,11.67Zm.028-1.442-.766-1.07h1.533Zm-4.407,7.43L9.969,15.436l1.115-1.36Zm7.93,4.935a.307.307,0,0,0,0,.558v.894a.307.307,0,0,0,0,.558V25.5a.307.307,0,0,0,0,.558v.891a.307.307,0,0,0,0,.558V28.4a.307.307,0,0,0,0,.558v.893a.307.307,0,0,0,0,.558v.9a.307.307,0,0,0,0,.558v.895a.307.307,0,0,0-.011.552,1.458,1.458,0,0,1-1.008,1.211.313.313,0,0,0-.305-.342.309.309,0,0,0-.309.308.315.315,0,0,0,.016.1,1.461,1.461,0,0,1-1.306-1.276.308.308,0,1,0,.146-.579.3.3,0,0,0-.156.044v-.924a.3.3,0,0,0,.156.044.308.308,0,0,0,0-.617.3.3,0,0,0-.156.044v-.926a.3.3,0,0,0,.156.044.308.308,0,0,0,0-.617.3.3,0,0,0-.156.044v-.922a.3.3,0,0,0,.156.044.308.308,0,1,0-.156-.573V27.49a.3.3,0,0,0,.156.044.308.308,0,0,0,0-.617.3.3,0,0,0-.156.044v-.92a.3.3,0,0,0,.156.044.308.308,0,0,0,0-.617.3.3,0,0,0-.156.044v-.922a.308.308,0,1,0,.156-.573.3.3,0,0,0-.156.044v-.924a.3.3,0,0,0,.156.044.308.308,0,1,0-.3-.344H15.09a.308.308,0,1,0-.305.344.3.3,0,0,0,.115-.023v.882a.3.3,0,0,0-.115-.023.308.308,0,1,0,0,.617.316.316,0,0,0,.115-.022v.879a.308.308,0,1,0-.115.595.3.3,0,0,0,.115-.023v.877a.308.308,0,1,0,0,.572v.881a.308.308,0,1,0,0,.572v.879a.3.3,0,0,0-.115-.023.308.308,0,1,0,.115.595V31.3a.308.308,0,1,0-.115.595.3.3,0,0,0,.115-.023v.881a.309.309,0,1,0-.013.576,1.459,1.459,0,0,1-1.26,1.249.3.3,0,0,0,.015-.089.308.308,0,1,0-.612.045,1.458,1.458,0,0,1-1.047-1.206.307.307,0,0,0-.013-.584v-.865a.307.307,0,0,0,0-.588v-.867a.307.307,0,0,0,0-.588v-.863a.306.306,0,0,0,0-.587v-.867a.307.307,0,0,0,0-.588V26.07a.307.307,0,0,0,0-.588v-.863a.307.307,0,0,0,0-.588v-.865a.306.306,0,0,0,0-.587v-.865a.308.308,0,0,0,.2-.4h.877a.314.314,0,0,0-.021.108.308.308,0,1,0,.6-.108H14.5a.306.306,0,0,0-.021.108.309.309,0,1,0,.6-.108h.876a.308.308,0,1,0,.575,0H17.4a.306.306,0,0,0-.021.108.308.308,0,1,0,.6-.108h.877a.309.309,0,0,0,.159.387v.894Zm9.657-10.9-5.063,3.774a1.187,1.187,0,0,1-1.643-.261l-2.952-3.6v9.165H11.968V11.6L8.921,15.319l2.151,4.286v2.25a1.113,1.113,0,0,1-1.652-.537L6.473,15.6a1.126,1.126,0,0,1,.11-1.026l2.961-3.692.01-.013a3.587,3.587,0,0,1,3.04-1.707h1.462l1.014,1.417L13.907,18.7l1.583,1.844L17.074,18.7l-1.161-8.122,1.015-1.417h1.462a3.587,3.587,0,0,1,3.04,1.707l1.652,2.061,4.211-3.139a1.216,1.216,0,0,1,.235-.133.792.792,0,0,0-.028,1.182.782.782,0,0,0,1.1-.044l.468-.5A1.19,1.19,0,0,1,28.671,11.692Zm7.464-9.866-7.933,8.6a.236.236,0,1,1-.349-.319l7.933-8.6A.237.237,0,1,1,36.134,1.826ZM15.818,9.536a.308.308,0,1,1-.308-.308A.309.309,0,0,1,15.818,9.536Zm0,5.346a.308.308,0,1,1-.308-.308A.308.308,0,0,1,15.818,14.882Zm0,1.451a.308.308,0,1,1-.308-.309A.308.308,0,0,1,15.818,16.333Zm0,1.453h0a.308.308,0,1,1-.617,0h0a.308.308,0,0,1,.617,0Zm-2.9,4.359a.308.308,0,1,1-.308-.308A.309.309,0,0,1,12.913,22.145Zm1.455,0a.308.308,0,1,1-.308-.308A.309.309,0,0,1,14.367,22.145Zm1.45,0a.308.308,0,1,1-.308-.308A.309.309,0,0,1,15.818,22.145Zm1.453,0a.308.308,0,1,1-.308-.308A.309.309,0,0,1,17.271,22.145Zm1.453,0a.308.308,0,1,1-.308-.308A.309.309,0,0,1,18.724,22.145ZM12.913,26.5a.308.308,0,1,1-.308-.308A.309.309,0,0,1,12.913,26.5Zm0,1.453a.308.308,0,1,1-.308-.308A.309.309,0,0,1,12.913,27.952ZM14.367,26.5a.308.308,0,1,1-.308-.308A.309.309,0,0,1,14.367,26.5Zm2.9,0a.308.308,0,1,1-.308-.308A.309.309,0,0,1,17.271,26.5Zm0,1.453a.308.308,0,1,1-.308-.308A.309.309,0,0,1,17.271,27.952Zm-2.9,0a.308.308,0,1,1-.308-.308A.309.309,0,0,1,14.367,27.952Zm-.727-.727a.308.308,0,1,1-.308-.308A.309.309,0,0,1,13.641,27.225Zm0,1.453a.308.308,0,1,1-.308-.308A.308.308,0,0,1,13.641,28.678Zm5.083-2.18a.308.308,0,1,1-.308-.308A.309.309,0,0,1,18.724,26.5Zm0,1.453a.308.308,0,1,1-.308-.308A.309.309,0,0,1,18.724,27.952ZM18,27.225a.308.308,0,1,1-.308-.308A.309.309,0,0,1,18,27.225Zm0,1.453a.308.308,0,1,1-.308-.308A.308.308,0,0,1,18,28.678Zm-5.085.725a.308.308,0,1,1-.308-.309A.308.308,0,0,1,12.913,29.4Zm4.358,0a.308.308,0,1,1-.308-.309A.308.308,0,0,1,17.271,29.4Zm-2.9,0a.308.308,0,1,1-.308-.309A.308.308,0,0,1,14.367,29.4Zm-.727.726a.308.308,0,1,1-.308-.308A.309.309,0,0,1,13.641,30.129Zm5.083-.726a.308.308,0,1,1-.308-.309A.308.308,0,0,1,18.724,29.4ZM18,30.129a.308.308,0,1,1-.308-.308A.309.309,0,0,1,18,30.129Zm-5.085.727a.308.308,0,1,1-.308-.308A.308.308,0,0,1,12.913,30.856Zm1.455,0a.308.308,0,1,1-.308-.308A.308.308,0,0,1,14.367,30.856Zm2.9,0a.308.308,0,1,1-.308-.308A.308.308,0,0,1,17.271,30.856Zm1.453,0a.308.308,0,1,1-.308-.308A.308.308,0,0,1,18.724,30.856Zm-5.811,1.455A.308.308,0,1,1,12.6,32,.309.309,0,0,1,12.913,32.311Zm4.358,0A.308.308,0,1,1,16.962,32,.309.309,0,0,1,17.271,32.311Zm-2.9,0A.308.308,0,1,1,14.059,32,.309.309,0,0,1,14.367,32.311Zm-.727-.727a.308.308,0,1,1-.308-.308A.309.309,0,0,1,13.641,31.585Zm0,1.453a.308.308,0,1,1-.308-.309A.308.308,0,0,1,13.641,33.038Zm5.083-.727A.308.308,0,1,1,18.416,32,.309.309,0,0,1,18.724,32.311ZM18,31.585a.308.308,0,1,1-.308-.308A.309.309,0,0,1,18,31.585Zm0,1.453a.308.308,0,1,1-.308-.309A.308.308,0,0,1,18,33.038Zm-5.085.725a.308.308,0,1,1-.308-.309A.308.308,0,0,1,12.913,33.763Zm4.358,0a.308.308,0,1,1-.308-.309A.308.308,0,0,1,17.271,33.763Zm-2.9,0h0a.308.308,0,1,1-.617,0h0a.308.308,0,1,1,.617,0Zm4.357,0h0a.308.308,0,1,1-.617,0h0a.308.308,0,1,1,.617,0ZM12.913,23.6a.308.308,0,1,1-.308-.308A.309.309,0,0,1,12.913,23.6Zm4.358,0a.308.308,0,1,1-.308-.308A.309.309,0,0,1,17.271,23.6Zm-2.9,0a.308.308,0,1,1-.308-.308A.309.309,0,0,1,14.367,23.6Zm-.727-.727a.308.308,0,1,1-.308-.308A.309.309,0,0,1,13.641,22.872Zm0,1.453a.308.308,0,1,1-.308-.308A.309.309,0,0,1,13.641,24.325Zm5.083-.726a.308.308,0,1,1-.308-.308A.309.309,0,0,1,18.724,23.6ZM18,22.872a.308.308,0,1,1-.308-.308A.309.309,0,0,1,18,22.872Zm0,1.453a.308.308,0,1,1-.308-.308A.309.309,0,0,1,18,24.325Zm-5.085.725a.308.308,0,1,1-.308-.308A.308.308,0,0,1,12.913,25.05Zm4.358,0a.308.308,0,1,1-.308-.308A.308.308,0,0,1,17.271,25.05Zm-2.9,0a.308.308,0,1,1-.308-.308A.308.308,0,0,1,14.367,25.05Zm-.727.727a.308.308,0,1,1-.308-.308A.309.309,0,0,1,13.641,25.776Zm5.083-.727a.308.308,0,1,1-.308-.308A.308.308,0,0,1,18.724,25.05ZM18,25.776a.308.308,0,1,1-.308-.308A.309.309,0,0,1,18,25.776Z" transform="translate(-5.523)"/></g></g></svg>