<svg xmlns="http://www.w3.org/2000/svg" width="27.329" height="26.214" viewBox="0 0 27.329 26.214"><defs><style>.a{fill:#707070;}</style></defs><g transform="translate(-1 -3.014)"><path class="a" d="M39.809,37.352,35.23,41.429l-1.79-2a1.194,1.194,0,0,0-1.776,1.592l3.377,3.768,6.353-5.661a1.194,1.194,0,0,0-1.587-1.782Z" transform="translate(-21.913 -24.559)"/><path class="a" d="M26.531,12.26c-.429-1.319,0-3.068-.809-4.183S23.106,6.825,22,6.019s-1.79-2.474-3.107-2.9c-1.274-.413-2.814.527-4.225.527s-2.95-.94-4.225-.527c-1.316.427-2.008,2.122-3.107,2.906S4.416,6.976,3.61,8.086,3.231,10.944,2.8,12.26c-.4,1.274-1.8,2.446-1.8,3.857S2.394,18.7,2.8,19.974c.429,1.319,0,3.068.809,4.183s2.616,1.252,3.726,2.058,1.788,2.479,3.107,2.909c1.272.413,2.814-.527,4.225-.527s2.95.94,4.225.527c1.319-.429,2.011-2.108,3.107-2.909s2.917-.951,3.726-2.058.382-2.858.809-4.183c.4-1.274,1.8-2.446,1.8-3.857S26.935,13.535,26.531,12.26ZM14.665,24.812a8.7,8.7,0,1,1,8.7-8.7,8.7,8.7,0,0,1-8.7,8.7Z" transform="translate(0 0)"/></g></svg>