<svg xmlns="http://www.w3.org/2000/svg" width="24.794" height="29.521" viewBox="0 0 24.794 29.521"><defs><style>.a{opacity:0.5;}</style></defs><g class="a" transform="translate(-40.994)"><path d="M65.788,19.028A2.888,2.888,0,0,0,63.481,16.2V13.089a.865.865,0,0,0-1.169-.81l-1.651.619a10.083,10.083,0,0,0-3.846-2.5,5.766,5.766,0,1,0-6.851,0,10.084,10.084,0,0,0-3.846,2.5l-1.651-.619a.865.865,0,0,0-1.169.81V16.2a2.883,2.883,0,0,0,0,5.65V25.2a.865.865,0,0,0,.561.81l9.226,3.46a.875.875,0,0,0,.607,0l9.226-3.46a.865.865,0,0,0,.561-.81V21.853A2.888,2.888,0,0,0,65.788,19.028ZM49.355,5.766A4.036,4.036,0,1,1,53.391,9.8,4.041,4.041,0,0,1,49.355,5.766Zm4.036,5.766a8.348,8.348,0,0,1,5.472,2.041l-5.472,2.052-5.472-2.052A8.348,8.348,0,0,1,53.391,11.532Zm-10.667,7.5a1.155,1.155,0,0,1,1.153-1.153h.577v2.306h-.577A1.155,1.155,0,0,1,42.724,19.028Zm2.306,2.854a1.444,1.444,0,0,0,1.153-1.412V17.586a1.444,1.444,0,0,0-1.153-1.412V14.337l7.5,2.811V27.409L45.03,24.6Zm9.226,5.527V17.148l7.5-2.811v1.837A1.444,1.444,0,0,0,60.6,17.586v2.883a1.444,1.444,0,0,0,1.153,1.412V24.6ZM62.9,20.181h-.577V17.875H62.9a1.153,1.153,0,0,1,0,2.306Z"/></g></svg>