<svg xmlns="http://www.w3.org/2000/svg" width="196.054" height="53.148" viewBox="0 0 196.054 53.148">
  <g id="Group_9250" data-name="Group 9250" transform="translate(-1172.619 -617.615)">
    <g id="Group_9231" data-name="Group 9231" transform="translate(1222.877 635.194)">
      <path id="Path_3725" data-name="Path 3725" d="M1399.319,663.349v10.69h-3.35V658.034a1.689,1.689,0,0,1,.3-.962,1.61,1.61,0,0,1,.859-.628,1.628,1.628,0,0,1,1.068.013,1.668,1.668,0,0,1,.805.617l7.09,10.122V656.5h3.329v15.985a1.674,1.674,0,0,1-.314.992,1.641,1.641,0,0,1-.855.622,1.7,1.7,0,0,1-.505.063,1.62,1.62,0,0,1-1.358-.716Zm-15.109-3.514v3h7.171l-1,3.352h-6.166v4.5h8.39v3.353h-10.065a1.693,1.693,0,0,1-1.675-1.676v-14.2a1.611,1.611,0,0,1,.512-1.186,1.661,1.661,0,0,1,1.162-.47H1392.6v3.332Zm-16.9,3.514v10.69h-3.35V658.034a1.692,1.692,0,0,1,.3-.962,1.61,1.61,0,0,1,.859-.628,1.628,1.628,0,0,1,1.068.013,1.667,1.667,0,0,1,.805.617l7.09,10.122V656.5h3.329v15.985a1.675,1.675,0,0,1-.314.992,1.64,1.64,0,0,1-.855.622,1.7,1.7,0,0,1-.505.063,1.619,1.619,0,0,1-1.358-.716Zm-11.383-6.845h3.35V674.04h-3.35Zm-7.741,7.524-3.967,6.549a1.686,1.686,0,0,1-1.433.81,1.637,1.637,0,0,1-1.435-.812l-3.945-6.536v10h-3.35V658.034a1.6,1.6,0,0,1,1.177-1.589,1.62,1.62,0,0,1,1.1.03,1.663,1.663,0,0,1,.829.694l5.622,9.316,5.64-9.317a1.677,1.677,0,0,1,.8-.688,1.592,1.592,0,0,1,1.1-.036,1.741,1.741,0,0,1,.825.546,1.611,1.611,0,0,1,.376,1.044V674.04h-3.35Zm-25.149,10.138a10.6,10.6,0,0,1-3.677-.6,7.548,7.548,0,0,1-4.619-4.622,11.534,11.534,0,0,1,0-7.347,7.532,7.532,0,0,1,4.62-4.634,11.535,11.535,0,0,1,7.354,0,7.53,7.53,0,0,1,4.619,4.634,11.527,11.527,0,0,1,0,7.347,7.548,7.548,0,0,1-4.618,4.622A10.6,10.6,0,0,1,1323.034,674.165Zm0-14.455a4.907,4.907,0,0,0-5.546,5.551,5.787,5.787,0,0,0,1.385,4.18,6.918,6.918,0,0,0,8.324,0,6.971,6.971,0,0,0,0-8.339A5.718,5.718,0,0,0,1323.034,659.711Zm-17.3,8.021h-3.4v6.308h-3.35V658.2a1.694,1.694,0,0,1,1.675-1.677h6.721a5.164,5.164,0,0,1,2.155.482,5.874,5.874,0,0,1,1.727,1.194,5.567,5.567,0,0,1,1.612,3.927,5.439,5.439,0,0,1-.368,1.995,5.716,5.716,0,0,1-2.486,2.888q-.2.113-.4.208l5.5,6.821h-4.305Zm-3.4-3.353h4.941a2.149,2.149,0,0,0,.859-.174,2.3,2.3,0,0,0,.727-.489,2.342,2.342,0,0,0,.491-.723,2.142,2.142,0,0,0,.172-.865,2.215,2.215,0,0,0-.174-.881,2.187,2.187,0,0,0-.48-.709,2.386,2.386,0,0,0-.735-.486,2.152,2.152,0,0,0-.859-.174h-4.941Zm-15.6,3.311v6.35h-3.349V658.16a1.612,1.612,0,0,1,.512-1.186,1.663,1.663,0,0,1,1.163-.47h6.72a5.267,5.267,0,0,1,2.146.468,5.705,5.705,0,0,1,1.735,1.188,5.59,5.59,0,0,1,1.17,6.109,5.657,5.657,0,0,1-2.976,2.978,5.45,5.45,0,0,1-2.18.443Zm0-7.854v4.522h4.942a2.15,2.15,0,0,0,.859-.174,2.279,2.279,0,0,0,1.216-1.216,2.216,2.216,0,0,0,.174-.881,2.154,2.154,0,0,0-.174-.86,2.28,2.28,0,0,0-1.216-1.216,2.159,2.159,0,0,0-.859-.174Zm132.666,0v14.2h-3.35v-14.2h-4.926V656.5h13.2v3.332Z" transform="translate(-1283.386 -656.358)" fill-rule="evenodd"/>
    </g>
    <g id="Group_9232" data-name="Group 9232" transform="translate(1208.023 635.331)">
      <path id="Path_3726" data-name="Path 3726" d="M1259.5,674.377l-8.851-8.858,8.851-8.858Z" transform="translate(-1250.647 -656.661)" fill="#0098da" fill-rule="evenodd"/>
    </g>
    <g id="Group_9233" data-name="Group 9233" transform="translate(1199.172 644.189)">
      <path id="Path_3727" data-name="Path 3727" d="M1239.991,693.9l-8.851-8.858,8.851-8.858Z" transform="translate(-1231.14 -676.183)" fill="#2f558e" fill-rule="evenodd"/>
    </g>
    <g id="Group_9234" data-name="Group 9234" transform="translate(1208.023 644.189)">
      <path id="Path_3728" data-name="Path 3728" d="M1250.647,676.183l8.851,8.858-8.851,8.858Z" transform="translate(-1250.647 -676.183)" fill="#0f649e" fill-rule="evenodd"/>
    </g>
    <g id="Group_9235" data-name="Group 9235" transform="translate(1190.321 653.047)">
      <path id="Path_3729" data-name="Path 3729" d="M1220.484,713.422l-8.851-8.858,8.851-8.858Z" transform="translate(-1211.633 -695.706)" fill="#56357f" fill-rule="evenodd"/>
    </g>
    <g id="Group_9236" data-name="Group 9236" transform="translate(1199.172 653.047)">
      <path id="Path_3730" data-name="Path 3730" d="M1231.14,695.706l8.851,8.858-8.851,8.858Z" transform="translate(-1231.14 -695.706)" fill="#394580" fill-rule="evenodd"/>
    </g>
    <g id="Group_9237" data-name="Group 9237" transform="translate(1199.172 626.473)">
      <path id="Path_3731" data-name="Path 3731" d="M1239.991,654.854,1231.14,646l8.851-8.858Z" transform="translate(-1231.14 -637.138)" fill="#72b881" fill-rule="evenodd"/>
    </g>
    <g id="Group_9238" data-name="Group 9238" transform="translate(1208.023 626.473)">
      <path id="Path_3732" data-name="Path 3732" d="M1250.647,637.138,1259.5,646l-8.851,8.858Z" transform="translate(-1250.647 -637.138)" fill="#18a6af" fill-rule="evenodd"/>
    </g>
    <g id="Group_9239" data-name="Group 9239" transform="translate(1190.321 644.189)">
      <path id="Path_3733" data-name="Path 3733" d="M1211.633,676.183l8.851,8.858-8.851,8.858Z" transform="translate(-1211.633 -676.183)" fill="#4d3067" fill-rule="evenodd"/>
    </g>
    <g id="Group_9240" data-name="Group 9240" transform="translate(1190.321 617.615)">
      <path id="Path_3734" data-name="Path 3734" d="M1220.484,635.331l-8.851-8.858,8.851-8.858Z" transform="translate(-1211.633 -617.615)" fill="#fff358" fill-rule="evenodd"/>
    </g>
    <g id="Group_9241" data-name="Group 9241" transform="translate(1199.172 617.615)">
      <path id="Path_3735" data-name="Path 3735" d="M1231.14,617.615l8.851,8.858-8.851,8.858Z" transform="translate(-1231.14 -617.615)" fill="#a8cf45" fill-rule="evenodd"/>
    </g>
    <g id="Group_9242" data-name="Group 9242" transform="translate(1181.47 626.473)">
      <path id="Path_3736" data-name="Path 3736" d="M1200.977,654.854,1192.126,646l8.851-8.858Z" transform="translate(-1192.126 -637.138)" fill="#faa831" fill-rule="evenodd"/>
    </g>
    <g id="Group_9243" data-name="Group 9243" transform="translate(1190.321 626.473)">
      <path id="Path_3737" data-name="Path 3737" d="M1211.633,637.138l8.851,8.858-8.851,8.858Z" transform="translate(-1211.633 -637.138)" fill="#ffcc29" fill-rule="evenodd"/>
    </g>
    <g id="Group_9244" data-name="Group 9244" transform="translate(1172.619 635.331)">
      <path id="Path_3738" data-name="Path 3738" d="M1181.47,674.377l-8.851-8.858,8.851-8.858Z" transform="translate(-1172.619 -656.661)" fill="#f16136" fill-rule="evenodd"/>
    </g>
    <g id="Group_9245" data-name="Group 9245" transform="translate(1181.47 635.331)">
      <path id="Path_3739" data-name="Path 3739" d="M1192.126,656.661l8.851,8.858-8.851,8.858Z" transform="translate(-1192.126 -656.661)" fill="#f58634" fill-rule="evenodd"/>
    </g>
    <g id="Group_9246" data-name="Group 9246" transform="translate(1172.619 644.189)">
      <path id="Path_3740" data-name="Path 3740" d="M1172.619,676.183l8.851,8.858-8.851,8.858Z" transform="translate(-1172.619 -676.183)" fill="#ed3237" fill-rule="evenodd"/>
    </g>
    <g id="Group_9247" data-name="Group 9247" transform="translate(1273.669 655.51)">
      <path id="Path_3741" data-name="Path 3741" d="M1478.418,708.155V704.64h-.684a.249.249,0,0,0,.064-.181.566.566,0,0,0-.064-.246h.684v-1.024l.854-.34v1.364h1.189a.388.388,0,0,0,0,.427h-1.189v2.83a7.046,7.046,0,0,0,.04.814,1.425,1.425,0,0,0,.21.612.577.577,0,0,0,.525.269,1.52,1.52,0,0,0,.584-.15v.341a2.7,2.7,0,0,1-1.016.235,1.075,1.075,0,0,1-.888-.38,1.632,1.632,0,0,1-.309-1.057m-4.279-2.4a1.477,1.477,0,0,1,.546-1.241,2.079,2.079,0,0,1,1.314-.422,2.591,2.591,0,0,1,1.218.29l-.259.854h-.172a.919.919,0,0,0-.211-.389,1,1,0,0,0-.347-.237,1.078,1.078,0,0,0-.409-.08.994.994,0,0,0-.585.184.775.775,0,0,0-.318.524,1.287,1.287,0,0,0-.022.181.651.651,0,0,0,.226.519,1.894,1.894,0,0,0,.6.332c.252.092.493.175.722.256a1.873,1.873,0,0,1,.834.553,1.189,1.189,0,0,1,.275.759,1.435,1.435,0,0,1-.262.805,1.924,1.924,0,0,1-.715.637,2.051,2.051,0,0,1-.983.245,2.165,2.165,0,0,1-1.54-.427l.259-.77h.172a1.328,1.328,0,0,0,1.14.792,1.055,1.055,0,0,0,.533-.139,1.106,1.106,0,0,0,.394-.368.822.822,0,0,0,.15-.458.942.942,0,0,0-.175-.482.988.988,0,0,0-.374-.286,3.809,3.809,0,0,0-.571-.2c-.228-.062-.392-.111-.494-.152a1.485,1.485,0,0,1-.691-.446A1.263,1.263,0,0,1,1474.139,705.755Zm-1.708.692a2.509,2.509,0,0,0-.3-1.29,1.133,1.133,0,0,0-1.065-.517,1.161,1.161,0,0,0-.772.278,1.8,1.8,0,0,0-.505.7,2.145,2.145,0,0,0-.177.825Zm-3.853.594a3.394,3.394,0,0,1,.327-1.548,2.226,2.226,0,0,1,.887-.96,2.5,2.5,0,0,1,1.266-.319,2.188,2.188,0,0,1,1.323.372,2.081,2.081,0,0,1,.724.9,2.711,2.711,0,0,1,.213,1.025,1.482,1.482,0,0,1-.036.365h-3.674a3.356,3.356,0,0,0,.173,1.148,1.4,1.4,0,0,0,.6.728,2.094,2.094,0,0,0,1.111.26,2.121,2.121,0,0,0,.868-.183,1.723,1.723,0,0,0,.67-.5l.084.6c-.277.182-.482.312-.611.387a2.309,2.309,0,0,1-.536.206,3.066,3.066,0,0,1-.819.1,2.823,2.823,0,0,1-1.41-.4,2.24,2.24,0,0,1-.839-.929A3.324,3.324,0,0,1,1468.578,707.041Zm-2.99,2.4v-5.225a1.418,1.418,0,0,0,.854,0v1.035a2.559,2.559,0,0,1,.394-.577,1.77,1.77,0,0,1,.52-.4,1.412,1.412,0,0,1,.631-.146c.033,0,.088,0,.166.011l-.086,1.026a1.277,1.277,0,0,0-.593-.171.792.792,0,0,0-.564.219,1.386,1.386,0,0,0-.35.541,1.763,1.763,0,0,0-.118.609v3.078a1.457,1.457,0,0,0-.854,0Zm-5.036-2.991a2.512,2.512,0,0,0-.3-1.29,1.134,1.134,0,0,0-1.066-.517,1.159,1.159,0,0,0-.771.278,1.788,1.788,0,0,0-.505.7,2.137,2.137,0,0,0-.177.825Zm-3.852.594a3.4,3.4,0,0,1,.326-1.548,2.226,2.226,0,0,1,.886-.96,2.5,2.5,0,0,1,1.266-.319,2.188,2.188,0,0,1,1.323.372,2.079,2.079,0,0,1,.724.9,2.712,2.712,0,0,1,.214,1.025,1.486,1.486,0,0,1-.037.365h-3.674a3.356,3.356,0,0,0,.173,1.148,1.4,1.4,0,0,0,.6.728,2.091,2.091,0,0,0,1.111.26,2.121,2.121,0,0,0,.868-.183,1.725,1.725,0,0,0,.669-.5l.084.6q-.416.274-.611.387a2.3,2.3,0,0,1-.536.206,3.06,3.06,0,0,1-.819.1,2.823,2.823,0,0,1-1.41-.4,2.238,2.238,0,0,1-.839-.929A3.319,3.319,0,0,1,1456.7,707.041Zm-5.557,2.4v-8.3a2.033,2.033,0,0,0,.5.065,1.355,1.355,0,0,0,.438-.065v3.945c.078-.1.166-.216.265-.347a1.591,1.591,0,0,1,.892-.593,3.051,3.051,0,0,1,.81-.092,1.43,1.43,0,0,1,.833.261,1.749,1.749,0,0,1,.582.71,2.33,2.33,0,0,1,.208,1v3.421a1.761,1.761,0,0,0-.941,0V706.1a1.444,1.444,0,0,0-.367-1.057,1.179,1.179,0,0,0-.877-.374,1.28,1.28,0,0,0-.679.2,1.426,1.426,0,0,0-.525.606,2.171,2.171,0,0,0-.2.966v2.992a1.406,1.406,0,0,0-.438-.064A2.118,2.118,0,0,0,1451.143,709.438Zm-2.984-1.283V704.64h-.684a.247.247,0,0,0,.064-.181.559.559,0,0,0-.064-.246h.684v-1.024l.854-.34v1.364h1.189a.388.388,0,0,0,0,.427h-1.189v2.83a6.909,6.909,0,0,0,.04.814,1.42,1.42,0,0,0,.21.612.578.578,0,0,0,.526.269,1.518,1.518,0,0,0,.583-.15v.341a2.7,2.7,0,0,1-1.016.235,1.076,1.076,0,0,1-.888-.38A1.632,1.632,0,0,1,1448.159,708.155Zm-4.872-1.707a2.508,2.508,0,0,0-.3-1.29,1.133,1.133,0,0,0-1.065-.517,1.159,1.159,0,0,0-.772.278,1.793,1.793,0,0,0-.505.7,2.137,2.137,0,0,0-.177.825Zm-3.853.594a3.4,3.4,0,0,1,.327-1.548,2.221,2.221,0,0,1,.887-.96,2.5,2.5,0,0,1,1.266-.319,2.188,2.188,0,0,1,1.323.372,2.081,2.081,0,0,1,.724.9,2.709,2.709,0,0,1,.213,1.025,1.482,1.482,0,0,1-.036.365h-3.674a3.343,3.343,0,0,0,.174,1.148,1.4,1.4,0,0,0,.6.728,2.09,2.09,0,0,0,1.111.26,2.122,2.122,0,0,0,.868-.183,1.725,1.725,0,0,0,.67-.5l.083.6c-.277.182-.481.312-.611.387a2.311,2.311,0,0,1-.536.206,3.066,3.066,0,0,1-.819.1,2.823,2.823,0,0,1-1.41-.4,2.242,2.242,0,0,1-.839-.929A3.322,3.322,0,0,1,1439.435,707.041Zm-5.638-2.828h1.113q.26.915.754,2.165a18.194,18.194,0,0,0,.872,1.948,19.667,19.667,0,0,0,.925-2.109,20.063,20.063,0,0,0,.7-2h.77q-.315.663-.6,1.3t-.562,1.316c-.186.453-.369.895-.545,1.329s-.351.858-.521,1.276a.95.95,0,0,0-.686,0Zm-4.791,2.919a2.944,2.944,0,0,0,.345,1.311,1.4,1.4,0,0,0,1.28.743,1.441,1.441,0,0,0,1.19-.593,3.058,3.058,0,0,0,.524-1.718,3.781,3.781,0,0,0-.177-1.207,1.7,1.7,0,0,0-.54-.816,1.508,1.508,0,0,0-2.167.42,2.914,2.914,0,0,0-.466,1.636Q1428.995,706.981,1429.006,707.132Zm-1.029-.089a3.182,3.182,0,0,1,.349-1.506,2.491,2.491,0,0,1,1-1.032,2.928,2.928,0,0,1,1.481-.368,2.287,2.287,0,0,1,1.553.5,2.633,2.633,0,0,1,.8,1.134,3.464,3.464,0,0,1,.219,1.1,2.788,2.788,0,0,1-.624,1.752,2.343,2.343,0,0,1-.848.654,2.767,2.767,0,0,1-1.2.248c-.025,0-.049,0-.069,0s-.051,0-.085,0a2.754,2.754,0,0,1-1.372-.328,2.251,2.251,0,0,1-.89-.891A2.572,2.572,0,0,1,1427.977,707.043Zm-4.616-.086q-.011.173-.011.257a2.837,2.837,0,0,0,.161.957,1.684,1.684,0,0,0,.493.734,1.218,1.218,0,0,0,.815.281,1.381,1.381,0,0,0,.812-.265,1.775,1.775,0,0,0,.6-.791,3.266,3.266,0,0,0,.219-1.26,3.649,3.649,0,0,0-.147-1.061,1.747,1.747,0,0,0-.471-.789,1.151,1.151,0,0,0-.807-.3.893.893,0,0,0-.118.006,1.1,1.1,0,0,0-.6.177,1.68,1.68,0,0,0-.494.487,2.4,2.4,0,0,0-.332.716A3.012,3.012,0,0,0,1423.361,706.957Zm-.941,2.481V701.31a1.717,1.717,0,0,0,.941,0v3.931a2.192,2.192,0,0,1,.48-.5,2.714,2.714,0,0,1,.675-.38,2.006,2.006,0,0,1,.731-.144,2.08,2.08,0,0,1,1.228.361,2.241,2.241,0,0,1,.775.957,3.1,3.1,0,0,1,.26,1.258,3.332,3.332,0,0,1-.15,1,2.754,2.754,0,0,1-.456.876,2.466,2.466,0,0,1-.775.652,2.546,2.546,0,0,1-1.053.3,2.21,2.21,0,0,1-.9-.2,2.729,2.729,0,0,1-.819-.575l-.684.6Zm-2.387-1.117v-1.455a7.047,7.047,0,0,0-1.306.23,1.582,1.582,0,0,0-.711.4.883.883,0,0,0-.226.623,1.875,1.875,0,0,0,.027.289.717.717,0,0,0,.332.446,1.127,1.127,0,0,0,.658.2A1.525,1.525,0,0,0,1420.033,708.321Zm-3.163-.084a1.452,1.452,0,0,1,.133-.637,1.255,1.255,0,0,1,.438-.488,2.455,2.455,0,0,1,.8-.332l1.364-.255a.549.549,0,0,0,.35-.212.671.671,0,0,0,.115-.395,1.2,1.2,0,0,0-.164-.584,1.372,1.372,0,0,0-.461-.5,1.23,1.23,0,0,0-.693-.2,1.2,1.2,0,0,0-.657.183,2.765,2.765,0,0,0-.624.588h-.172v-.6c.21-.126.4-.226.559-.3a3.212,3.212,0,0,1,.563-.206,2.536,2.536,0,0,1,.673-.088,2.031,2.031,0,0,1,1.425.423,1.8,1.8,0,0,1,.454,1.375v2.738a.265.265,0,0,0,.294.3,1.5,1.5,0,0,0,.3-.048v.258a.952.952,0,0,1-.626.217,1.065,1.065,0,0,1-.6-.177.687.687,0,0,1-.317-.47,2.428,2.428,0,0,1-1.678.767,1.5,1.5,0,0,1-1.054-.4A1.275,1.275,0,0,1,1416.87,708.237Zm-4.7-1.789a2.509,2.509,0,0,0-.3-1.29,1.134,1.134,0,0,0-1.065-.517,1.159,1.159,0,0,0-.772.278,1.8,1.8,0,0,0-.505.7,2.145,2.145,0,0,0-.177.825Zm-3.853.594a3.4,3.4,0,0,1,.326-1.548,2.226,2.226,0,0,1,.886-.96,2.506,2.506,0,0,1,1.266-.319,2.186,2.186,0,0,1,1.322.372,2.084,2.084,0,0,1,.725.9,2.72,2.72,0,0,1,.213,1.025,1.485,1.485,0,0,1-.037.365h-3.674a3.356,3.356,0,0,0,.173,1.148,1.4,1.4,0,0,0,.6.728,2.09,2.09,0,0,0,1.111.26,2.121,2.121,0,0,0,.868-.183,1.727,1.727,0,0,0,.67-.5l.083.6c-.277.182-.481.312-.611.387a2.318,2.318,0,0,1-.536.206,3.065,3.065,0,0,1-.819.1,2.823,2.823,0,0,1-1.41-.4,2.245,2.245,0,0,1-.839-.929A3.322,3.322,0,0,1,1408.321,707.041Zm-3.928-1.285a1.476,1.476,0,0,1,.545-1.241,2.08,2.08,0,0,1,1.313-.422,2.589,2.589,0,0,1,1.218.29l-.259.854h-.171a.918.918,0,0,0-.212-.389.991.991,0,0,0-.347-.237,1.076,1.076,0,0,0-.409-.08,1,1,0,0,0-.585.184.774.774,0,0,0-.317.524,1.311,1.311,0,0,0-.022.181.651.651,0,0,0,.226.519,1.9,1.9,0,0,0,.6.332c.252.092.492.175.722.256a1.872,1.872,0,0,1,.833.553,1.187,1.187,0,0,1,.275.759,1.437,1.437,0,0,1-.263.805,1.925,1.925,0,0,1-.715.637,2.049,2.049,0,0,1-.983.245,2.165,2.165,0,0,1-1.539-.427l.259-.77h.171a1.328,1.328,0,0,0,1.14.792,1.053,1.053,0,0,0,.532-.139,1.108,1.108,0,0,0,.394-.368.821.821,0,0,0,.149-.458.938.938,0,0,0-.175-.482.982.982,0,0,0-.374-.286,3.811,3.811,0,0,0-.571-.2c-.228-.062-.392-.111-.495-.152a1.487,1.487,0,0,1-.691-.446A1.263,1.263,0,0,1,1404.392,705.755Zm-2.48,3.682v-5.3a2.431,2.431,0,0,0,.5.054,1.608,1.608,0,0,0,.438-.054v5.3a1.406,1.406,0,0,0-.438-.064A2.125,2.125,0,0,0,1401.912,709.438Zm-.086-7.186a.588.588,0,0,1,.172-.458.581.581,0,0,1,.406-.155.634.634,0,0,1,.436.164.572.572,0,0,1,.184.449.7.7,0,0,1-.206.455.58.58,0,0,1-.4.159.574.574,0,0,1-.412-.17A.583.583,0,0,1,1401.826,702.252Zm-5.468,3.164c.093.007.224.011.4.011a2.943,2.943,0,0,0,1.536-.327,1.508,1.508,0,0,0,.666-.71,2.042,2.042,0,0,0,.139-.69,1.339,1.339,0,0,0-.7-1.125,2.091,2.091,0,0,0-1.1-.246h-.941Zm-1.029,4.022V701.9h2.654a2.742,2.742,0,0,1,1.184.23,1.588,1.588,0,0,1,.721.637,1.828,1.828,0,0,1,.235.931,1.7,1.7,0,0,1-.368,1.113,2.349,2.349,0,0,1-.877.672,3.31,3.31,0,0,1-.98.27l2.91,3.682a3.257,3.257,0,0,0-1.285,0l-2.822-3.594h-.343v3.594a2.1,2.1,0,0,0-1.029,0Z" transform="translate(-1395.33 -701.135)" fill="#201e1e" fill-rule="evenodd"/>
    </g>
    <g id="Group_9248" data-name="Group 9248" transform="translate(1361.393 626.92)">
      <path id="Path_3742" data-name="Path 3742" d="M1588.669,641.655a3.556,3.556,0,0,0,.478,1.943,3.444,3.444,0,0,0,.423.574,3.677,3.677,0,0,0,1.193.915,3.755,3.755,0,0,0,3.08,0,3.584,3.584,0,0,0,.676-.421,3.909,3.909,0,0,0,.77-.8,3.193,3.193,0,0,0,.326-.557c.024-.057.042-.083.067-.146s.045-.109.063-.165a3.844,3.844,0,0,0,.007-2.453c-.04-.121-.082-.2-.127-.314a3.5,3.5,0,0,0-.51-.8c-.037-.047-.061-.063-.1-.114a4.013,4.013,0,0,0-1.114-.851,3.757,3.757,0,0,0-2.866-.136,1.393,1.393,0,0,0-.153.06,3.613,3.613,0,0,0-1.169.81,3.834,3.834,0,0,0-.72,1.018,3.583,3.583,0,0,0-.323,1.428m.427.142a3.127,3.127,0,0,1,.479-1.728l.45-.562a3.5,3.5,0,0,1,.43-.367c.083-.059.152-.106.24-.158a3.138,3.138,0,0,1,1.59-.432,3.225,3.225,0,0,1,2.962,4.528,3.338,3.338,0,0,1-.637.93c-.032.032-.059.063-.093.092a1.18,1.18,0,0,0-.106.093,3.265,3.265,0,0,1-3.493.481,3.563,3.563,0,0,1-.592-.377l-.316-.282a4.139,4.139,0,0,1-.5-.663,2.917,2.917,0,0,1-.135-.264A3.28,3.28,0,0,1,1589.1,641.8Z" transform="translate(-1588.669 -638.123)" fill="#231f20" fill-rule="evenodd"/>
    </g>
    <g id="Group_9249" data-name="Group 9249" transform="translate(1363.614 628.202)">
      <path id="Path_3743" data-name="Path 3743" d="M1593.565,645.591h.641v-1.908c0-.074.151-.043.356-.043a.66.66,0,0,1,.552.274,4.948,4.948,0,0,1,.583,1.1c.041.1.094.192.131.283.023.058.04.088.065.149a.882.882,0,0,1,.065.148h.8l-.214-.427c-.026-.052-.046-.106-.071-.157a5.039,5.039,0,0,0-.808-1.357.7.7,0,0,0-.2-.128c-.065-.024-.039.01-.074-.039a1.844,1.844,0,0,0,.45-.148,1.473,1.473,0,0,0,.351-.247,1.149,1.149,0,0,0,.367-.9,1.136,1.136,0,0,0-.159-.582,1.763,1.763,0,0,0-1.607-.657h-1.225Zm1.239-2.506c-.117,0-.2.005-.3.014a2.767,2.767,0,0,1-.3-.014v-1.567c.059,0,.073-.011.128-.014.14-.008.273.014.456.014.574,0,1.068.092,1.068.8a.752.752,0,0,1-.84.769.712.712,0,0,0-.109.006C1594.823,643.1,1594.872,643.084,1594.8,643.084Z" transform="translate(-1593.565 -640.948)" fill="#231f20" fill-rule="evenodd"/>
    </g>
  </g>
</svg>
