<svg xmlns="http://www.w3.org/2000/svg" width="36.651" height="32.213" viewBox="0 0 36.651 32.213"><g transform="translate(0 -31)"><circle cx="1.191" cy="1.191" r="1.191" transform="translate(19.67 37.005)"/><circle cx="1.191" cy="1.191" r="1.191" transform="translate(23.641 37.005)"/><ellipse cx="0.794" cy="1.191" rx="0.794" ry="1.191" transform="translate(28.406 37.005)"/><path d="M24.139,127.274a3.217,3.217,0,0,0,3.206-3.221v-4.3a1.074,1.074,0,0,0-.733-1.018l-6.427-2.148a1.074,1.074,0,0,0-.936.125l-2.733,1.822a18.983,18.983,0,0,1-7.779-7.709l1.822-2.732a1.074,1.074,0,0,0,.125-.936l-2.148-6.427A1.074,1.074,0,0,0,7.516,100h-4.3A3.217,3.217,0,0,0,0,103.206a24.034,24.034,0,0,0,7.4,16.705,24.182,24.182,0,0,0,16.738,7.362ZM3.221,102.148H6.743l1.736,5.2-1.856,2.784a1.074,1.074,0,0,0-.1.994,17.762,17.762,0,0,0,4.024,5.653,18.207,18.207,0,0,0,5.681,3.98,1.074,1.074,0,0,0,.994-.1L20,118.795l5.2,1.736v3.522a1.055,1.055,0,0,1-1.059,1.074c-11.3,0-21.992-10.653-21.992-21.92A1.055,1.055,0,0,1,3.221,102.148Z" transform="translate(0 -64.061)"/><path d="M188.105,50.246a1.074,1.074,0,0,0,1.17-.233l3.98-3.981h3.85a7.517,7.517,0,1,0,0-15.033h-8.59a7.517,7.517,0,0,0-1.074,14.956v3.3A1.074,1.074,0,0,0,188.105,50.246Zm-4.958-11.73a5.375,5.375,0,0,1,5.369-5.369h8.59a5.369,5.369,0,1,1,0,10.738h-4.3a1.073,1.073,0,0,0-.759.314l-2.462,2.462v-1.7a1.074,1.074,0,0,0-1.074-1.074A5.375,5.375,0,0,1,183.148,38.516Z" transform="translate(-168.043)"/></g></svg>